<?xml version="1.0" encoding="UTF-8" standalone="no"?><svg xmlns="http://www.w3.org/2000/svg" xmlns:xlink="http://www.w3.org/1999/xlink" contentScriptType="application/ecmascript" contentStyleType="text/css" height="758px" preserveAspectRatio="none" style="width:3662px;height:758px;" version="1.1" viewBox="0 0 3662 758" width="3662px" zoomAndPan="magnify"><defs><filter height="300%" id="fd6dlozkugkwh" width="300%" x="-1" y="-1"><feGaussianBlur result="blurOut" stdDeviation="2.0"/><feColorMatrix in="blurOut" result="blurOut2" type="matrix" values="0 0 0 0 0 0 0 0 0 0 0 0 0 0 0 0 0 0 .4 0"/><feOffset dx="4.0" dy="4.0" in="blurOut2" result="blurOut3"/><feBlend in="SourceGraphic" in2="blurOut3" mode="normal"/></filter></defs><g><!--MD5=[5a3bbf0d7091cd7a553e0617d3c8fdbb]
cluster nucleus--><polygon fill="#FFFFFF" filter="url(#fd6dlozkugkwh)" points="22,24,90,24,97,46.2969,3640,46.2969,3640,746,22,746,22,24" style="stroke: #000000; stroke-width: 1.5;"/><line style="stroke: #000000; stroke-width: 1.5;" x1="22" x2="97" y1="46.2969" y2="46.2969"/><text fill="#000000" font-family="sans-serif" font-size="14" font-weight="bold" lengthAdjust="spacingAndGlyphs" textLength="62" x="26" y="38.9951">nucleus</text><!--MD5=[bab13c5e4e1287bb6552991deab0dcad]
cluster nucleus.vectortile--><polygon fill="#FFFFFF" filter="url(#fd6dlozkugkwh)" points="46,67,127,67,134,89.2969,3616,89.2969,3616,722,46,722,46,67" style="stroke: #000000; stroke-width: 1.5;"/><line style="stroke: #000000; stroke-width: 1.5;" x1="46" x2="134" y1="89.2969" y2="89.2969"/><text fill="#000000" font-family="sans-serif" font-size="14" font-weight="bold" lengthAdjust="spacingAndGlyphs" textLength="75" x="50" y="81.9951">vectortile</text><!--MD5=[aefcb20a0905bfc60fe8f2dda6c04515]
class nucleus.vectortile.VectorTileManager--><rect fill="#FEFECE" filter="url(#fd6dlozkugkwh)" height="112.0234" id="nucleus.vectortile.VectorTileManager" style="stroke: #A80036; stroke-width: 1.5;" width="765" x="2379.5" y="159.5"/><ellipse cx="2699.25" cy="175.5" fill="#ADD1B2" rx="11" ry="11" style="stroke: #A80036; stroke-width: 1.0;"/><path d="M2702.2188,181.1406 Q2701.6406,181.4375 2701,181.5781 Q2700.3594,181.7344 2699.6563,181.7344 Q2697.1563,181.7344 2695.8281,180.0938 Q2694.5156,178.4375 2694.5156,175.3125 Q2694.5156,172.1875 2695.8281,170.5313 Q2697.1563,168.875 2699.6563,168.875 Q2700.3594,168.875 2701,169.0313 Q2701.6563,169.1875 2702.2188,169.4844 L2702.2188,172.2031 Q2701.5938,171.625 2701,171.3594 Q2700.4063,171.0781 2699.7813,171.0781 Q2698.4375,171.0781 2697.75,172.1563 Q2697.0625,173.2188 2697.0625,175.3125 Q2697.0625,177.4063 2697.75,178.4844 Q2698.4375,179.5469 2699.7813,179.5469 Q2700.4063,179.5469 2701,179.2813 Q2701.5938,179 2702.2188,178.4219 L2702.2188,181.1406 Z "/><text fill="#000000" font-family="sans-serif" font-size="12" lengthAdjust="spacingAndGlyphs" textLength="117" x="2719.75" y="179.6543">VectorTileManager</text><line style="stroke: #A80036; stroke-width: 1.5;" x1="2380.5" x2="3143.5" y1="191.5" y2="191.5"/><rect fill="none" height="6" style="stroke: #C82930; stroke-width: 1.0;" width="6" x="2387.5" y="199.5"/><text fill="#000000" font-family="sans-serif" font-size="11" lengthAdjust="spacingAndGlyphs" text-decoration="underline" textLength="236" x="2399.5" y="205.7104">m_tile_server : inline static const QString</text><rect fill="none" height="6" style="stroke: #C82930; stroke-width: 1.0;" width="6" x="2387.5" y="212.3047"/><text fill="#000000" font-family="sans-serif" font-size="11" lengthAdjust="spacingAndGlyphs" text-decoration="underline" textLength="260" x="2399.5" y="218.5151">m_all_chars : inline static std::set&lt;char16_t&gt;</text><line style="stroke: #A80036; stroke-width: 1.5;" x1="2380.5" x2="3143.5" y1="225.1094" y2="225.1094"/><ellipse cx="2390.5" cy="236.1094" fill="#84BE84" rx="3" ry="3" style="stroke: #038048; stroke-width: 1.0;"/><text fill="#000000" font-family="sans-serif" font-size="11" lengthAdjust="spacingAndGlyphs" textLength="205" x="2399.5" y="239.3198">VectorTileManager(QObject* parent)</text><ellipse cx="2390.5" cy="248.9141" fill="#84BE84" rx="3" ry="3" style="stroke: #038048; stroke-width: 1.0;"/><text fill="#000000" font-family="sans-serif" font-size="11" lengthAdjust="spacingAndGlyphs" text-decoration="underline" textLength="123" x="2399.5" y="252.1245">tile_server() : QString</text><ellipse cx="2390.5" cy="261.7188" fill="#84BE84" rx="3" ry="3" style="stroke: #038048; stroke-width: 1.0;"/><text fill="#000000" font-family="sans-serif" font-size="11" lengthAdjust="spacingAndGlyphs" text-decoration="underline" textLength="739" x="2399.5" y="264.9292">to_vector_tile(const QByteArray&amp; vectorTileData, const std::shared_ptr&lt;DataQuerier&gt; dataquerier) : std::shared_ptr&lt;VectorTile&gt;</text><!--MD5=[b8534d76ee9c6d014fe2cb9eb52a95b4]
class nucleus.vectortile.FeatureType--><rect fill="#FEFECE" filter="url(#fd6dlozkugkwh)" height="112.0234" id="nucleus.vectortile.FeatureType" style="stroke: #A80036; stroke-width: 1.5;" width="110" x="62" y="491.5"/><ellipse cx="77" cy="507.5" fill="#EB937F" rx="11" ry="11" style="stroke: #A80036; stroke-width: 1.0;"/><path d="M81.1094,513.5 L73.3906,513.5 L73.3906,501.1094 L81.1094,501.1094 L81.1094,503.2656 L75.8438,503.2656 L75.8438,505.9375 L80.6094,505.9375 L80.6094,508.0938 L75.8438,508.0938 L75.8438,511.3438 L81.1094,511.3438 L81.1094,513.5 Z "/><text fill="#000000" font-family="sans-serif" font-size="12" lengthAdjust="spacingAndGlyphs" textLength="78" x="91" y="511.6543">FeatureType</text><line style="stroke: #A80036; stroke-width: 1.5;" x1="63" x2="171" y1="523.5" y2="523.5"/><text fill="#000000" font-family="sans-serif" font-size="11" lengthAdjust="spacingAndGlyphs" textLength="21" x="68" y="537.7104">City</text><text fill="#000000" font-family="sans-serif" font-size="11" lengthAdjust="spacingAndGlyphs" textLength="44" x="68" y="550.5151">Cottage</text><text fill="#000000" font-family="sans-serif" font-size="11" lengthAdjust="spacingAndGlyphs" textLength="61" x="68" y="563.3198">ENUM_END</text><text fill="#000000" font-family="sans-serif" font-size="11" lengthAdjust="spacingAndGlyphs" textLength="27" x="68" y="576.1245">Peak</text><text fill="#000000" font-family="sans-serif" font-size="11" lengthAdjust="spacingAndGlyphs" textLength="47" x="68" y="588.9292">Webcam</text><line style="stroke: #A80036; stroke-width: 1.5;" x1="63" x2="171" y1="595.5234" y2="595.5234"/><!--MD5=[93e0b4a758a0a7a7cdb3411705a19b88]
class nucleus.vectortile.FeatureTXT--><rect fill="#FEFECE" filter="url(#fd6dlozkugkwh)" height="227.2656" id="nucleus.vectortile.FeatureTXT" style="stroke: #A80036; stroke-width: 1.5;" width="830" x="1060" y="102"/><ellipse cx="1435.25" cy="118" fill="#A9DCDF" rx="11" ry="11" style="stroke: #A80036; stroke-width: 1.0;"/><path d="M1435.3594,113.3438 L1434.2031,118.4219 L1436.5313,118.4219 L1435.3594,113.3438 Z M1433.875,111.1094 L1436.8594,111.1094 L1440.2188,123.5 L1437.7656,123.5 L1437,120.4375 L1433.7188,120.4375 L1432.9688,123.5 L1430.5313,123.5 L1433.875,111.1094 Z "/><text fill="#000000" font-family="sans-serif" font-size="12" font-style="italic" lengthAdjust="spacingAndGlyphs" textLength="71" x="1455.75" y="122.1543">FeatureTXT</text><line style="stroke: #A80036; stroke-width: 1.5;" x1="1061" x2="1889" y1="134" y2="134"/><ellipse cx="1071" cy="145" fill="none" rx="3" ry="3" style="stroke: #038048; stroke-width: 1.0;"/><text fill="#000000" font-family="sans-serif" font-size="11" lengthAdjust="spacingAndGlyphs" textLength="106" x="1080" y="148.2104">type : FeatureType</text><ellipse cx="1071" cy="157.8047" fill="none" rx="3" ry="3" style="stroke: #038048; stroke-width: 1.0;"/><text fill="#000000" font-family="sans-serif" font-size="11" lengthAdjust="spacingAndGlyphs" textLength="87" x="1080" y="161.0151">name : QString</text><ellipse cx="1071" cy="170.6094" fill="none" rx="3" ry="3" style="stroke: #038048; stroke-width: 1.0;"/><text fill="#000000" font-family="sans-serif" font-size="11" lengthAdjust="spacingAndGlyphs" textLength="151" x="1080" y="173.8198">internal_id : const uint64_t</text><ellipse cx="1071" cy="183.4141" fill="none" rx="3" ry="3" style="stroke: #038048; stroke-width: 1.0;"/><text fill="#000000" font-family="sans-serif" font-size="11" lengthAdjust="spacingAndGlyphs" textLength="101" x="1080" y="186.6245">importance : float</text><ellipse cx="1071" cy="196.2188" fill="none" rx="3" ry="3" style="stroke: #038048; stroke-width: 1.0;"/><text fill="#000000" font-family="sans-serif" font-size="11" lengthAdjust="spacingAndGlyphs" textLength="119" x="1080" y="199.4292">position : glm::dvec2</text><ellipse cx="1071" cy="209.0234" fill="none" rx="3" ry="3" style="stroke: #038048; stroke-width: 1.0;"/><text fill="#000000" font-family="sans-serif" font-size="11" lengthAdjust="spacingAndGlyphs" textLength="150" x="1080" y="212.2339">worldposition : glm::dvec3</text><ellipse cx="1071" cy="221.8281" fill="none" rx="3" ry="3" style="stroke: #038048; stroke-width: 1.0;"/><text fill="#000000" font-family="sans-serif" font-size="11" lengthAdjust="spacingAndGlyphs" text-decoration="underline" textLength="185" x="1080" y="225.0386">id_counter : inline static uint64_t</text><ellipse cx="1071" cy="234.6328" fill="none" rx="3" ry="3" style="stroke: #038048; stroke-width: 1.0;"/><text fill="#000000" font-family="sans-serif" font-size="11" lengthAdjust="spacingAndGlyphs" textLength="132" x="1080" y="237.8433">importance_metric : int</text><ellipse cx="1071" cy="247.4375" fill="none" rx="3" ry="3" style="stroke: #038048; stroke-width: 1.0;"/><text fill="#000000" font-family="sans-serif" font-size="11" lengthAdjust="spacingAndGlyphs" textLength="67" x="1080" y="250.6479">id : uint64_t</text><line style="stroke: #A80036; stroke-width: 1.5;" x1="1061" x2="1889" y1="257.2422" y2="257.2422"/><ellipse cx="1071" cy="268.2422" fill="#84BE84" rx="3" ry="3" style="stroke: #038048; stroke-width: 1.0;"/><text fill="#000000" font-family="sans-serif" font-size="11" lengthAdjust="spacingAndGlyphs" textLength="72" x="1080" y="271.4526">FeatureTXT()</text><ellipse cx="1071" cy="281.0469" fill="#84BE84" rx="3" ry="3" style="stroke: #038048; stroke-width: 1.0;"/><text fill="#000000" font-family="sans-serif" font-size="11" lengthAdjust="spacingAndGlyphs" textLength="81" x="1080" y="284.2573">~FeatureTXT()</text><ellipse cx="1071" cy="293.8516" fill="#84BE84" rx="3" ry="3" style="stroke: #038048; stroke-width: 1.0;"/><text fill="#000000" font-family="sans-serif" font-size="11" font-style="italic" lengthAdjust="spacingAndGlyphs" textLength="268" x="1080" y="297.062">get_feature_data() : FeatureProperties {query}</text><ellipse cx="1071" cy="306.6563" fill="#84BE84" rx="3" ry="3" style="stroke: #038048; stroke-width: 1.0;"/><text fill="#000000" font-family="sans-serif" font-size="11" font-style="italic" lengthAdjust="spacingAndGlyphs" textLength="168" x="1080" y="309.8667">label_text() : QString {query}</text><ellipse cx="1071" cy="319.4609" fill="#84BE84" rx="3" ry="3" style="stroke: #038048; stroke-width: 1.0;"/><text fill="#000000" font-family="sans-serif" font-size="11" lengthAdjust="spacingAndGlyphs" text-decoration="underline" textLength="804" x="1080" y="322.6714">parse(std::shared_ptr&lt;FeatureTXT&gt; ft, const mapbox::vector_tile::feature&amp; feature, const std::shared_ptr&lt;DataQuerier&gt; dataquerier) : void</text><!--MD5=[7a2cf047958857d4fcaf1c2f807d0b3d]
class nucleus.vectortile.FeatureTXTCity--><rect fill="#FEFECE" filter="url(#fd6dlozkugkwh)" height="163.2422" id="nucleus.vectortile.FeatureTXTCity" style="stroke: #A80036; stroke-width: 1.5;" width="822" x="207" y="466"/><ellipse cx="567.75" cy="482" fill="#ADD1B2" rx="11" ry="11" style="stroke: #A80036; stroke-width: 1.0;"/><path d="M570.7188,487.6406 Q570.1406,487.9375 569.5,488.0781 Q568.8594,488.2344 568.1563,488.2344 Q565.6563,488.2344 564.3281,486.5938 Q563.0156,484.9375 563.0156,481.8125 Q563.0156,478.6875 564.3281,477.0313 Q565.6563,475.375 568.1563,475.375 Q568.8594,475.375 569.5,475.5313 Q570.1563,475.6875 570.7188,475.9844 L570.7188,478.7031 Q570.0938,478.125 569.5,477.8594 Q568.9063,477.5781 568.2813,477.5781 Q566.9375,477.5781 566.25,478.6563 Q565.5625,479.7188 565.5625,481.8125 Q565.5625,483.9063 566.25,484.9844 Q566.9375,486.0469 568.2813,486.0469 Q568.9063,486.0469 569.5,485.7813 Q570.0938,485.5 570.7188,484.9219 L570.7188,487.6406 Z "/><text fill="#000000" font-family="sans-serif" font-size="12" lengthAdjust="spacingAndGlyphs" textLength="92" x="588.25" y="486.1543">FeatureTXTCity</text><line style="stroke: #A80036; stroke-width: 1.5;" x1="208" x2="1028" y1="498" y2="498"/><ellipse cx="218" cy="509" fill="none" rx="3" ry="3" style="stroke: #038048; stroke-width: 1.0;"/><text fill="#000000" font-family="sans-serif" font-size="11" lengthAdjust="spacingAndGlyphs" textLength="85" x="227" y="512.2104">place : QString</text><ellipse cx="218" cy="521.8047" fill="none" rx="3" ry="3" style="stroke: #038048; stroke-width: 1.0;"/><text fill="#000000" font-family="sans-serif" font-size="11" lengthAdjust="spacingAndGlyphs" textLength="145" x="227" y="525.0151">population_date : QString</text><ellipse cx="218" cy="534.6094" fill="none" rx="3" ry="3" style="stroke: #038048; stroke-width: 1.0;"/><text fill="#000000" font-family="sans-serif" font-size="11" lengthAdjust="spacingAndGlyphs" textLength="99" x="227" y="537.8198">website : QString</text><ellipse cx="218" cy="547.4141" fill="none" rx="3" ry="3" style="stroke: #038048; stroke-width: 1.0;"/><text fill="#000000" font-family="sans-serif" font-size="11" lengthAdjust="spacingAndGlyphs" textLength="101" x="227" y="550.6245">wikidata : QString</text><ellipse cx="218" cy="560.2188" fill="none" rx="3" ry="3" style="stroke: #038048; stroke-width: 1.0;"/><text fill="#000000" font-family="sans-serif" font-size="11" lengthAdjust="spacingAndGlyphs" textLength="107" x="227" y="563.4292">wikipedia : QString</text><ellipse cx="218" cy="573.0234" fill="none" rx="3" ry="3" style="stroke: #038048; stroke-width: 1.0;"/><text fill="#000000" font-family="sans-serif" font-size="11" lengthAdjust="spacingAndGlyphs" textLength="85" x="227" y="576.2339">population : int</text><line style="stroke: #A80036; stroke-width: 1.5;" x1="208" x2="1028" y1="582.8281" y2="582.8281"/><ellipse cx="218" cy="593.8281" fill="#84BE84" rx="3" ry="3" style="stroke: #038048; stroke-width: 1.0;"/><text fill="#000000" font-family="sans-serif" font-size="11" lengthAdjust="spacingAndGlyphs" textLength="268" x="227" y="597.0386">get_feature_data() : FeatureProperties {query}</text><ellipse cx="218" cy="606.6328" fill="#84BE84" rx="3" ry="3" style="stroke: #038048; stroke-width: 1.0;"/><text fill="#000000" font-family="sans-serif" font-size="11" lengthAdjust="spacingAndGlyphs" textLength="167" x="227" y="609.8433">label_text() : QString {query}</text><ellipse cx="218" cy="619.4375" fill="#84BE84" rx="3" ry="3" style="stroke: #038048; stroke-width: 1.0;"/><text fill="#000000" font-family="sans-serif" font-size="11" lengthAdjust="spacingAndGlyphs" text-decoration="underline" textLength="796" x="227" y="622.6479">parse(const mapbox::vector_tile::feature&amp; feature, const std::shared_ptr&lt;DataQuerier&gt; dataquerier) : std::shared_ptr&lt;const FeatureTXT&gt;</text><!--MD5=[9c5e776a41c3e4735f8ba39d6733d610]
class nucleus.vectortile.FeatureTXTCottage--><rect fill="#FEFECE" filter="url(#fd6dlozkugkwh)" height="316.8984" id="nucleus.vectortile.FeatureTXTCottage" style="stroke: #A80036; stroke-width: 1.5;" width="822" x="1064" y="389"/><ellipse cx="1410.75" cy="405" fill="#ADD1B2" rx="11" ry="11" style="stroke: #A80036; stroke-width: 1.0;"/><path d="M1413.7188,410.6406 Q1413.1406,410.9375 1412.5,411.0781 Q1411.8594,411.2344 1411.1563,411.2344 Q1408.6563,411.2344 1407.3281,409.5938 Q1406.0156,407.9375 1406.0156,404.8125 Q1406.0156,401.6875 1407.3281,400.0313 Q1408.6563,398.375 1411.1563,398.375 Q1411.8594,398.375 1412.5,398.5313 Q1413.1563,398.6875 1413.7188,398.9844 L1413.7188,401.7031 Q1413.0938,401.125 1412.5,400.8594 Q1411.9063,400.5781 1411.2813,400.5781 Q1409.9375,400.5781 1409.25,401.6563 Q1408.5625,402.7188 1408.5625,404.8125 Q1408.5625,406.9063 1409.25,407.9844 Q1409.9375,409.0469 1411.2813,409.0469 Q1411.9063,409.0469 1412.5,408.7813 Q1413.0938,408.5 1413.7188,407.9219 L1413.7188,410.6406 Z "/><text fill="#000000" font-family="sans-serif" font-size="12" lengthAdjust="spacingAndGlyphs" textLength="120" x="1431.25" y="409.1543">FeatureTXTCottage</text><line style="stroke: #A80036; stroke-width: 1.5;" x1="1065" x2="1885" y1="421" y2="421"/><ellipse cx="1075" cy="432" fill="none" rx="3" ry="3" style="stroke: #038048; stroke-width: 1.0;"/><text fill="#000000" font-family="sans-serif" font-size="11" lengthAdjust="spacingAndGlyphs" textLength="95" x="1084" y="435.2104">access : QString</text><ellipse cx="1075" cy="444.8047" fill="none" rx="3" ry="3" style="stroke: #038048; stroke-width: 1.0;"/><text fill="#000000" font-family="sans-serif" font-size="11" lengthAdjust="spacingAndGlyphs" textLength="106" x="1084" y="448.0151">addr_city : QString</text><ellipse cx="1075" cy="457.6094" fill="none" rx="3" ry="3" style="stroke: #038048; stroke-width: 1.0;"/><text fill="#000000" font-family="sans-serif" font-size="11" lengthAdjust="spacingAndGlyphs" textLength="166" x="1084" y="460.8198">addr_housenumber : QString</text><ellipse cx="1075" cy="470.4141" fill="none" rx="3" ry="3" style="stroke: #038048; stroke-width: 1.0;"/><text fill="#000000" font-family="sans-serif" font-size="11" lengthAdjust="spacingAndGlyphs" textLength="139" x="1084" y="473.6245">addr_postcode : QString</text><ellipse cx="1075" cy="483.2188" fill="none" rx="3" ry="3" style="stroke: #038048; stroke-width: 1.0;"/><text fill="#000000" font-family="sans-serif" font-size="11" lengthAdjust="spacingAndGlyphs" textLength="121" x="1084" y="486.4292">addr_street : QString</text><ellipse cx="1075" cy="496.0234" fill="none" rx="3" ry="3" style="stroke: #038048; stroke-width: 1.0;"/><text fill="#000000" font-family="sans-serif" font-size="11" lengthAdjust="spacingAndGlyphs" textLength="101" x="1084" y="499.2339">capacity : QString</text><ellipse cx="1075" cy="508.8281" fill="none" rx="3" ry="3" style="stroke: #038048; stroke-width: 1.0;"/><text fill="#000000" font-family="sans-serif" font-size="11" lengthAdjust="spacingAndGlyphs" textLength="118" x="1084" y="512.0386">description : QString</text><ellipse cx="1075" cy="521.6328" fill="none" rx="3" ry="3" style="stroke: #038048; stroke-width: 1.0;"/><text fill="#000000" font-family="sans-serif" font-size="11" lengthAdjust="spacingAndGlyphs" textLength="86" x="1084" y="524.8433">email : QString</text><ellipse cx="1075" cy="534.4375" fill="none" rx="3" ry="3" style="stroke: #038048; stroke-width: 1.0;"/><text fill="#000000" font-family="sans-serif" font-size="11" lengthAdjust="spacingAndGlyphs" textLength="126" x="1084" y="537.6479">feature_type : QString</text><ellipse cx="1075" cy="547.2422" fill="none" rx="3" ry="3" style="stroke: #038048; stroke-width: 1.0;"/><text fill="#000000" font-family="sans-serif" font-size="11" lengthAdjust="spacingAndGlyphs" textLength="145" x="1084" y="550.4526">internet_access : QString</text><ellipse cx="1075" cy="560.0469" fill="none" rx="3" ry="3" style="stroke: #038048; stroke-width: 1.0;"/><text fill="#000000" font-family="sans-serif" font-size="11" lengthAdjust="spacingAndGlyphs" textLength="139" x="1084" y="563.2573">opening_hours : QString</text><ellipse cx="1075" cy="572.8516" fill="none" rx="3" ry="3" style="stroke: #038048; stroke-width: 1.0;"/><text fill="#000000" font-family="sans-serif" font-size="11" lengthAdjust="spacingAndGlyphs" textLength="111" x="1084" y="576.062">operators : QString</text><ellipse cx="1075" cy="585.6563" fill="none" rx="3" ry="3" style="stroke: #038048; stroke-width: 1.0;"/><text fill="#000000" font-family="sans-serif" font-size="11" lengthAdjust="spacingAndGlyphs" textLength="90" x="1084" y="588.8667">phone : QString</text><ellipse cx="1075" cy="598.4609" fill="none" rx="3" ry="3" style="stroke: #038048; stroke-width: 1.0;"/><text fill="#000000" font-family="sans-serif" font-size="11" lengthAdjust="spacingAndGlyphs" textLength="97" x="1084" y="601.6714">shower : QString</text><ellipse cx="1075" cy="611.2656" fill="none" rx="3" ry="3" style="stroke: #038048; stroke-width: 1.0;"/><text fill="#000000" font-family="sans-serif" font-size="11" lengthAdjust="spacingAndGlyphs" textLength="99" x="1084" y="614.4761">website : QString</text><ellipse cx="1075" cy="624.0703" fill="none" rx="3" ry="3" style="stroke: #038048; stroke-width: 1.0;"/><text fill="#000000" font-family="sans-serif" font-size="11" lengthAdjust="spacingAndGlyphs" textLength="101" x="1084" y="627.2808">wikidata : QString</text><ellipse cx="1075" cy="636.875" fill="none" rx="3" ry="3" style="stroke: #038048; stroke-width: 1.0;"/><text fill="#000000" font-family="sans-serif" font-size="11" lengthAdjust="spacingAndGlyphs" textLength="107" x="1084" y="640.0854">wikipedia : QString</text><ellipse cx="1075" cy="649.6797" fill="none" rx="3" ry="3" style="stroke: #038048; stroke-width: 1.0;"/><text fill="#000000" font-family="sans-serif" font-size="11" lengthAdjust="spacingAndGlyphs" textLength="77" x="1084" y="652.8901">elevation : int</text><line style="stroke: #A80036; stroke-width: 1.5;" x1="1065" x2="1885" y1="659.4844" y2="659.4844"/><ellipse cx="1075" cy="670.4844" fill="#84BE84" rx="3" ry="3" style="stroke: #038048; stroke-width: 1.0;"/><text fill="#000000" font-family="sans-serif" font-size="11" lengthAdjust="spacingAndGlyphs" textLength="268" x="1084" y="673.6948">get_feature_data() : FeatureProperties {query}</text><ellipse cx="1075" cy="683.2891" fill="#84BE84" rx="3" ry="3" style="stroke: #038048; stroke-width: 1.0;"/><text fill="#000000" font-family="sans-serif" font-size="11" lengthAdjust="spacingAndGlyphs" textLength="167" x="1084" y="686.4995">label_text() : QString {query}</text><ellipse cx="1075" cy="696.0938" fill="#84BE84" rx="3" ry="3" style="stroke: #038048; stroke-width: 1.0;"/><text fill="#000000" font-family="sans-serif" font-size="11" lengthAdjust="spacingAndGlyphs" text-decoration="underline" textLength="796" x="1084" y="699.3042">parse(const mapbox::vector_tile::feature&amp; feature, const std::shared_ptr&lt;DataQuerier&gt; dataquerier) : std::shared_ptr&lt;const FeatureTXT&gt;</text><!--MD5=[57da42b081b7af8e7170971bcc76cac5]
class nucleus.vectortile.FeatureTXTPeak--><rect fill="#FEFECE" filter="url(#fd6dlozkugkwh)" height="176.0469" id="nucleus.vectortile.FeatureTXTPeak" style="stroke: #A80036; stroke-width: 1.5;" width="822" x="1921" y="459.5"/><ellipse cx="2277.25" cy="475.5" fill="#ADD1B2" rx="11" ry="11" style="stroke: #A80036; stroke-width: 1.0;"/><path d="M2280.2188,481.1406 Q2279.6406,481.4375 2279,481.5781 Q2278.3594,481.7344 2277.6563,481.7344 Q2275.1563,481.7344 2273.8281,480.0938 Q2272.5156,478.4375 2272.5156,475.3125 Q2272.5156,472.1875 2273.8281,470.5313 Q2275.1563,468.875 2277.6563,468.875 Q2278.3594,468.875 2279,469.0313 Q2279.6563,469.1875 2280.2188,469.4844 L2280.2188,472.2031 Q2279.5938,471.625 2279,471.3594 Q2278.4063,471.0781 2277.7813,471.0781 Q2276.4375,471.0781 2275.75,472.1563 Q2275.0625,473.2188 2275.0625,475.3125 Q2275.0625,477.4063 2275.75,478.4844 Q2276.4375,479.5469 2277.7813,479.5469 Q2278.4063,479.5469 2279,479.2813 Q2279.5938,479 2280.2188,478.4219 L2280.2188,481.1406 Z "/><text fill="#000000" font-family="sans-serif" font-size="12" lengthAdjust="spacingAndGlyphs" textLength="101" x="2297.75" y="479.6543">FeatureTXTPeak</text><line style="stroke: #A80036; stroke-width: 1.5;" x1="1922" x2="2742" y1="491.5" y2="491.5"/><ellipse cx="1932" cy="502.5" fill="none" rx="3" ry="3" style="stroke: #038048; stroke-width: 1.0;"/><text fill="#000000" font-family="sans-serif" font-size="11" lengthAdjust="spacingAndGlyphs" textLength="150" x="1941" y="505.7104">importance_osm : QString</text><ellipse cx="1932" cy="515.3047" fill="none" rx="3" ry="3" style="stroke: #038048; stroke-width: 1.0;"/><text fill="#000000" font-family="sans-serif" font-size="11" lengthAdjust="spacingAndGlyphs" textLength="122" x="1941" y="518.5151">prominence : QString</text><ellipse cx="1932" cy="528.1094" fill="none" rx="3" ry="3" style="stroke: #038048; stroke-width: 1.0;"/><text fill="#000000" font-family="sans-serif" font-size="11" lengthAdjust="spacingAndGlyphs" textLength="136" x="1941" y="531.3198">summit_cross : QString</text><ellipse cx="1932" cy="540.9141" fill="none" rx="3" ry="3" style="stroke: #038048; stroke-width: 1.0;"/><text fill="#000000" font-family="sans-serif" font-size="11" lengthAdjust="spacingAndGlyphs" textLength="149" x="1941" y="544.1245">summit_register : QString</text><ellipse cx="1932" cy="553.7188" fill="none" rx="3" ry="3" style="stroke: #038048; stroke-width: 1.0;"/><text fill="#000000" font-family="sans-serif" font-size="11" lengthAdjust="spacingAndGlyphs" textLength="101" x="1941" y="556.9292">wikidata : QString</text><ellipse cx="1932" cy="566.5234" fill="none" rx="3" ry="3" style="stroke: #038048; stroke-width: 1.0;"/><text fill="#000000" font-family="sans-serif" font-size="11" lengthAdjust="spacingAndGlyphs" textLength="107" x="1941" y="569.7339">wikipedia : QString</text><ellipse cx="1932" cy="579.3281" fill="none" rx="3" ry="3" style="stroke: #038048; stroke-width: 1.0;"/><text fill="#000000" font-family="sans-serif" font-size="11" lengthAdjust="spacingAndGlyphs" textLength="77" x="1941" y="582.5386">elevation : int</text><line style="stroke: #A80036; stroke-width: 1.5;" x1="1922" x2="2742" y1="589.1328" y2="589.1328"/><ellipse cx="1932" cy="600.1328" fill="#84BE84" rx="3" ry="3" style="stroke: #038048; stroke-width: 1.0;"/><text fill="#000000" font-family="sans-serif" font-size="11" lengthAdjust="spacingAndGlyphs" textLength="268" x="1941" y="603.3433">get_feature_data() : FeatureProperties {query}</text><ellipse cx="1932" cy="612.9375" fill="#84BE84" rx="3" ry="3" style="stroke: #038048; stroke-width: 1.0;"/><text fill="#000000" font-family="sans-serif" font-size="11" lengthAdjust="spacingAndGlyphs" textLength="167" x="1941" y="616.1479">label_text() : QString {query}</text><ellipse cx="1932" cy="625.7422" fill="#84BE84" rx="3" ry="3" style="stroke: #038048; stroke-width: 1.0;"/><text fill="#000000" font-family="sans-serif" font-size="11" lengthAdjust="spacingAndGlyphs" text-decoration="underline" textLength="796" x="1941" y="628.9526">parse(const mapbox::vector_tile::feature&amp; feature, const std::shared_ptr&lt;DataQuerier&gt; dataquerier) : std::shared_ptr&lt;const FeatureTXT&gt;</text><!--MD5=[dc684af98f1e33c3cbf0d9292f11b675]
class nucleus.vectortile.FeatureTXTWebcam--><rect fill="#FEFECE" filter="url(#fd6dlozkugkwh)" height="163.2422" id="nucleus.vectortile.FeatureTXTWebcam" style="stroke: #A80036; stroke-width: 1.5;" width="822" x="2778" y="466"/><ellipse cx="3123.25" cy="482" fill="#ADD1B2" rx="11" ry="11" style="stroke: #A80036; stroke-width: 1.0;"/><path d="M3126.2188,487.6406 Q3125.6406,487.9375 3125,488.0781 Q3124.3594,488.2344 3123.6563,488.2344 Q3121.1563,488.2344 3119.8281,486.5938 Q3118.5156,484.9375 3118.5156,481.8125 Q3118.5156,478.6875 3119.8281,477.0313 Q3121.1563,475.375 3123.6563,475.375 Q3124.3594,475.375 3125,475.5313 Q3125.6563,475.6875 3126.2188,475.9844 L3126.2188,478.7031 Q3125.5938,478.125 3125,477.8594 Q3124.4063,477.5781 3123.7813,477.5781 Q3122.4375,477.5781 3121.75,478.6563 Q3121.0625,479.7188 3121.0625,481.8125 Q3121.0625,483.9063 3121.75,484.9844 Q3122.4375,486.0469 3123.7813,486.0469 Q3124.4063,486.0469 3125,485.7813 Q3125.5938,485.5 3126.2188,484.9219 L3126.2188,487.6406 Z "/><text fill="#000000" font-family="sans-serif" font-size="12" lengthAdjust="spacingAndGlyphs" textLength="123" x="3143.75" y="486.1543">FeatureTXTWebcam</text><line style="stroke: #A80036; stroke-width: 1.5;" x1="2779" x2="3599" y1="498" y2="498"/><ellipse cx="2789" cy="509" fill="none" rx="3" ry="3" style="stroke: #038048; stroke-width: 1.0;"/><text fill="#000000" font-family="sans-serif" font-size="11" lengthAdjust="spacingAndGlyphs" textLength="128" x="2798" y="512.2104">camera_type : QString</text><ellipse cx="2789" cy="521.8047" fill="none" rx="3" ry="3" style="stroke: #038048; stroke-width: 1.0;"/><text fill="#000000" font-family="sans-serif" font-size="11" lengthAdjust="spacingAndGlyphs" textLength="118" x="2798" y="525.0151">description : QString</text><ellipse cx="2789" cy="534.6094" fill="none" rx="3" ry="3" style="stroke: #038048; stroke-width: 1.0;"/><text fill="#000000" font-family="sans-serif" font-size="11" lengthAdjust="spacingAndGlyphs" textLength="90" x="2798" y="537.8198">image : QString</text><ellipse cx="2789" cy="547.4141" fill="none" rx="3" ry="3" style="stroke: #038048; stroke-width: 1.0;"/><text fill="#000000" font-family="sans-serif" font-size="11" lengthAdjust="spacingAndGlyphs" textLength="153" x="2798" y="550.6245">surveillance_type : QString</text><ellipse cx="2789" cy="560.2188" fill="none" rx="3" ry="3" style="stroke: #038048; stroke-width: 1.0;"/><text fill="#000000" font-family="sans-serif" font-size="11" lengthAdjust="spacingAndGlyphs" textLength="75" x="2798" y="563.4292">direction : int</text><ellipse cx="2789" cy="573.0234" fill="none" rx="3" ry="3" style="stroke: #038048; stroke-width: 1.0;"/><text fill="#000000" font-family="sans-serif" font-size="11" lengthAdjust="spacingAndGlyphs" textLength="77" x="2798" y="576.2339">elevation : int</text><line style="stroke: #A80036; stroke-width: 1.5;" x1="2779" x2="3599" y1="582.8281" y2="582.8281"/><ellipse cx="2789" cy="593.8281" fill="#84BE84" rx="3" ry="3" style="stroke: #038048; stroke-width: 1.0;"/><text fill="#000000" font-family="sans-serif" font-size="11" lengthAdjust="spacingAndGlyphs" textLength="268" x="2798" y="597.0386">get_feature_data() : FeatureProperties {query}</text><ellipse cx="2789" cy="606.6328" fill="#84BE84" rx="3" ry="3" style="stroke: #038048; stroke-width: 1.0;"/><text fill="#000000" font-family="sans-serif" font-size="11" lengthAdjust="spacingAndGlyphs" textLength="167" x="2798" y="609.8433">label_text() : QString {query}</text><ellipse cx="2789" cy="619.4375" fill="#84BE84" rx="3" ry="3" style="stroke: #038048; stroke-width: 1.0;"/><text fill="#000000" font-family="sans-serif" font-size="11" lengthAdjust="spacingAndGlyphs" text-decoration="underline" textLength="796" x="2798" y="622.6479">parse(const mapbox::vector_tile::feature&amp; feature, const std::shared_ptr&lt;DataQuerier&gt; dataquerier) : std::shared_ptr&lt;const FeatureTXT&gt;</text><!--MD5=[b7e30292637fc15ebeb085678816536d]
reverse link nucleus.vectortile.FeatureTXT to nucleus.vectortile.FeatureTXTCity--><path d="M1163.83,336.32 C1051.92,379.41 928.44,426.96 827.27,465.92 " fill="none" id="nucleus.vectortile.FeatureTXT&lt;-nucleus.vectortile.FeatureTXTCity" style="stroke: #A80036; stroke-width: 1.0;"/><polygon fill="none" points="1161.59,329.68,1182.77,329.03,1166.62,342.75,1161.59,329.68" style="stroke: #A80036; stroke-width: 1.0;"/><!--MD5=[20bfce3acbd350bb27ee9b4ce01aeb29]
reverse link nucleus.vectortile.FeatureTXT to nucleus.vectortile.FeatureTXTCottage--><path d="M1475,349.3 C1475,362.31 1475,375.59 1475,388.81 " fill="none" id="nucleus.vectortile.FeatureTXT&lt;-nucleus.vectortile.FeatureTXTCottage" style="stroke: #A80036; stroke-width: 1.0;"/><polygon fill="none" points="1468,349.14,1475,329.14,1482,349.14,1468,349.14" style="stroke: #A80036; stroke-width: 1.0;"/><!--MD5=[6e95ca019c16df3dce20f75727e90fa5]
reverse link nucleus.vectortile.FeatureTXT to nucleus.vectortile.FeatureTXTPeak--><path d="M1786.17,336.32 C1891.94,377.05 2008.05,421.76 2105.88,459.43 " fill="none" id="nucleus.vectortile.FeatureTXT&lt;-nucleus.vectortile.FeatureTXTPeak" style="stroke: #A80036; stroke-width: 1.0;"/><polygon fill="none" points="1783.38,342.75,1767.23,329.03,1788.41,329.68,1783.38,342.75" style="stroke: #A80036; stroke-width: 1.0;"/><!--MD5=[c691c9176799b807e9f9b8308c28d2c2]
reverse link nucleus.vectortile.FeatureTXT to nucleus.vectortile.FeatureTXTWebcam--><path d="M1909.85,272.53 C2266.43,318.84 2719.11,378.62 2761,389 C2840.16,408.62 2924.9,437.95 2997.92,466 " fill="none" id="nucleus.vectortile.FeatureTXT&lt;-nucleus.vectortile.FeatureTXTWebcam" style="stroke: #A80036; stroke-width: 1.0;"/><polygon fill="none" points="1908.93,279.47,1890,269.95,1910.73,265.58,1908.93,279.47" style="stroke: #A80036; stroke-width: 1.0;"/><!--MD5=[0cd54eed9c0a03ec14acae898621238e]
reverse link nucleus.vectortile.FeatureTXT to nucleus.vectortile.FeatureType--><path d="M1046.63,230.07 C726.45,248.17 322.05,290.42 189,389 C156.15,413.34 137.88,456.27 127.97,491.17 " fill="none" id="nucleus.vectortile.FeatureTXT&lt;-nucleus.vectortile.FeatureType" style="stroke: #A80036; stroke-width: 1.0;"/><polygon fill="#A80036" points="1059.89,229.33,1053.6754,225.6724,1047.9088,230.0022,1054.1235,233.6598,1059.89,229.33" style="stroke: #A80036; stroke-width: 1.0;"/><!--MD5=[d0f8fdd19fca2db902946d83ac8e6a7e]
@startuml






namespace nucleus {
	namespace vectortile {
		class VectorTileManager {
			+VectorTileManager(QObject* parent)
			+{static} tile_server() : QString
			-{static} m_tile_server : inline static const QString
			-{static} m_all_chars : inline static std::set<char16_t>
			+{static} to_vector_tile(const QByteArray& vectorTileData, const std::shared_ptr<DataQuerier> dataquerier) : std::shared_ptr<VectorTile>
		}

		enum FeatureType {
			City
			Cottage
			ENUM_END
			Peak
			Webcam
		}

		abstract class FeatureTXT {
			+FeatureTXT()
			+~FeatureTXT()
			+{abstract} get_feature_data() : FeatureProperties {query}
			+type : FeatureType
			+{abstract} label_text() : QString {query}
			+name : QString
			+internal_id : const uint64_t
			+importance : float
			+position : glm::dvec2
			+worldposition : glm::dvec3
			+{static} id_counter : inline static uint64_t
			+importance_metric : int
			+id : uint64_t
			+{static} parse(std::shared_ptr<FeatureTXT> ft, const mapbox::vector_tile::feature& feature, const std::shared_ptr<DataQuerier> dataquerier) : void
		}

		class FeatureTXTCity {
			+get_feature_data() : FeatureProperties {query}
			+label_text() : QString {query}
			+place : QString
			+population_date : QString
			+website : QString
			+wikidata : QString
			+wikipedia : QString
			+population : int
			+{static} parse(const mapbox::vector_tile::feature& feature, const std::shared_ptr<DataQuerier> dataquerier) : std::shared_ptr<const FeatureTXT>
		}

		class FeatureTXTCottage {
			+get_feature_data() : FeatureProperties {query}
			+access : QString
			+addr_city : QString
			+addr_housenumber : QString
			+addr_postcode : QString
			+addr_street : QString
			+capacity : QString
			+description : QString
			+email : QString
			+feature_type : QString
			+internet_access : QString
			+label_text() : QString {query}
			+opening_hours : QString
			+operators : QString
			+phone : QString
			+shower : QString
			+website : QString
			+wikidata : QString
			+wikipedia : QString
			+elevation : int
			+{static} parse(const mapbox::vector_tile::feature& feature, const std::shared_ptr<DataQuerier> dataquerier) : std::shared_ptr<const FeatureTXT>
		}

		class FeatureTXTPeak {
			+get_feature_data() : FeatureProperties {query}
			+importance_osm : QString
			+label_text() : QString {query}
			+prominence : QString
			+summit_cross : QString
			+summit_register : QString
			+wikidata : QString
			+wikipedia : QString
			+elevation : int
			+{static} parse(const mapbox::vector_tile::feature& feature, const std::shared_ptr<DataQuerier> dataquerier) : std::shared_ptr<const FeatureTXT>
		}

		class FeatureTXTWebcam {
			+get_feature_data() : FeatureProperties {query}
			+camera_type : QString
			+description : QString
			+image : QString
			+label_text() : QString {query}
			+surveillance_type : QString
			+direction : int
			+elevation : int
			+{static} parse(const mapbox::vector_tile::feature& feature, const std::shared_ptr<DataQuerier> dataquerier) : std::shared_ptr<const FeatureTXT>
		}
	}
}






nucleus.vectortile.FeatureTXT <|- - nucleus.vectortile.FeatureTXTCity


nucleus.vectortile.FeatureTXT <|- - nucleus.vectortile.FeatureTXTCottage


nucleus.vectortile.FeatureTXT <|- - nucleus.vectortile.FeatureTXTPeak


nucleus.vectortile.FeatureTXT <|- - nucleus.vectortile.FeatureTXTWebcam






nucleus.vectortile.FeatureTXT *- - nucleus.vectortile.FeatureType









@enduml

PlantUML version 1.2020.02(Sun Mar 01 11:22:07 CET 2020)
(GPL source distribution)
Java Runtime: OpenJDK Runtime Environment
JVM: OpenJDK 64-Bit Server VM
Java Version: 21.0.4+7-Ubuntu-1ubuntu222.04
Operating System: Linux
Default Encoding: UTF-8
Language: en
Country: US
--></g></svg>